Coordinates
version=1
nRows=14
nColumns=40
inDegrees=yes

Units are S.I. units (second, meters, Newtons, ...)
If the header above contains a line with 'inDegrees', this indicates whether rotational values are in degrees (yes) or radians (no).

endheader
time	pelvis_tilt	pelvis_list	pelvis_rotation	pelvis_tx	pelvis_ty	pelvis_tz	hip_flexion_r	hip_adduction_r	hip_rotation_r	knee_angle_r	knee_angle_r_beta	ankle_angle_r	subtalar_angle_r	mtp_angle_r	hip_flexion_l	hip_adduction_l	hip_rotation_l	knee_angle_l	knee_angle_l_beta	ankle_angle_l	subtalar_angle_l	mtp_angle_l	lumbar_extension	lumbar_bending	lumbar_rotation	arm_flex_r	arm_add_r	arm_rot_r	elbow_flex_r	pro_sup_r	wrist_flex_r	wrist_dev_r	arm_flex_l	arm_add_l	arm_rot_l	elbow_flex_l	pro_sup_l	wrist_flex_l	wrist_dev_l
      0.00000000	     19.09892677	      3.77788588	      4.51580765	     -0.11770441	      0.97380562	     -0.32635598	      4.84348806	     -6.73926557	     -8.14121903	     30.11987916	      0.52569106	     -7.72868708	      0.00000000	      0.00000000	    -28.53351074	      5.81203862	     10.08134397	      7.90087567	      0.13789629	     -5.29444123	      0.00000000	      0.00000000	    -33.68168781	     -1.36470386	     -9.93742570	     -1.52581330	    -16.67703401	      6.61286143	     44.76492745	     78.66989066	      0.00000000	      0.00000000	     11.90607683	    -27.07724815	     23.04110689	     55.15125790	     74.44778250	      0.00000000	      0.00000000
      0.00400000	     18.85284685	      3.95625489	      4.52546809	     -0.11293278	      0.97264584	     -0.32649618	      5.34957531	     -6.94256938	     -8.36666407	     29.08022169	      0.50754562	     -7.88810868	      0.00000000	      0.00000000	    -28.65773243	      5.97666350	     10.14996592	      7.82974664	      0.13665486	     -5.13527267	      0.00000000	      0.00000000	    -33.50863158	     -1.51649199	    -10.07286906	     -1.45910118	    -16.63155332	      6.63095403	     44.81050088	     78.68082080	      0.00000000	      0.00000000	     12.09106220	    -27.07752465	     23.11131974	     55.21801334	     74.53938747	      0.00000000	      0.00000000
      0.00800000	     18.68065415	      4.14778702	      4.55266045	     -0.10806034	      0.97162629	     -0.32650212	      5.74711379	     -7.13295421	     -8.59397676	     28.03122350	      0.48923714	     -8.06935571	      0.00000000	      0.00000000	    -28.77063372	      6.13264496	     10.07729018	      7.93746636	      0.13853492	     -4.98475061	      0.00000000	      0.00000000	    -33.39756531	     -1.68528523	    -10.22846821	     -1.42249484	    -16.53907338	      6.51347834	     44.85077669	     78.68050942	      0.00000000	      0.00000000	     12.26651019	    -27.12424439	     23.13922324	     55.30682073	     74.63373283	      0.00000000	      0.00000000
      0.01200000	     18.39960309	      4.29294288	      4.50316723	     -0.10303293	      0.97022368	     -0.32670684	      6.37755066	     -7.33985524	     -9.05979012	     27.21381100	      0.47497060	     -8.04951099	      0.00000000	      0.00000000	    -28.89499217	      6.32106802	      9.81935703	      7.82624930	      0.13659382	     -4.78334870	      0.00000000	      0.00000000	    -33.14717817	     -1.83973622	    -10.29127554	     -1.40953134	    -16.54390805	      6.51799055	     44.91626380	     78.68087841	      0.00000000	      0.00000000	     12.38317447	    -27.10695298	     23.18369475	     55.45009986	     74.67669541	      0.00000000	      0.00000000
      0.01600000	     18.25125587	      4.32586654	      4.47340039	     -0.09863129	      0.96924502	     -0.32659760	      6.74800427	     -7.29042455	     -9.17537276	     26.00549940	      0.45388159	     -8.65948823	      0.00000000	      0.00000000	    -29.02886450	      6.35057204	      9.68321272	      7.86602681	      0.13728807	     -4.61424400	      0.00000000	      0.00000000	    -33.11477472	     -1.87233484	    -10.29912069	     -1.22721695	    -16.50972650	      6.59132622	     44.92758287	     78.72216258	      0.00000000	      0.00000000	     12.65384248	    -27.07888415	     23.19078381	     55.47316906	     74.85025125	      0.00000000	      0.00000000
      0.02000000	     17.99159187	      4.45311860	      4.60366234	     -0.09354436	      0.96800748	     -0.32672883	      7.20178706	     -7.43079057	     -9.67295009	     24.95980640	      0.43563080	     -8.81344331	      0.00000000	      0.00000000	    -29.10219564	      6.40705200	      9.70002422	      7.89842704	      0.13785356	     -4.41039214	      0.00000000	      0.00000000	    -32.88808742	     -1.94513972	    -10.51425392	     -1.20620901	    -16.37818875	      6.36435955	     44.92019926	     78.71863060	      0.00000000	      0.00000000	     12.75963129	    -27.09487168	     23.18375243	     55.51172711	     74.98967185	      0.00000000	      0.00000000
      0.02400000	     17.72960018	      4.63435677	      4.48160367	     -0.08868644	      0.96653756	     -0.32662410	      7.84697588	     -7.62218105	    -10.00324218	     24.18167640	      0.42204987	     -8.76790367	      0.00000000	      0.00000000	    -29.17303858	      6.64338974	      9.46012608	      7.90103651	      0.13789910	     -4.22984884	      0.00000000	      0.00000000	    -32.69157216	     -2.18374777	    -10.50686529	     -1.16805039	    -16.37881894	      6.43653569	     44.95527573	     78.74318055	      0.00000000	      0.00000000	     12.92288678	    -27.12207879	     23.23385476	     55.63145912	     75.03377184	      0.00000000	      0.00000000
      0.02800000	     17.49569334	      4.74521145	      4.55796980	     -0.08391387	      0.96535242	     -0.32651528	      8.26337929	     -7.67418712	    -10.25198017	     23.03761647	      0.40208226	     -9.27835182	      0.00000000	      0.00000000	    -29.21870497	      6.69660975	      9.42055987	      8.01351028	      0.13986214	     -3.96223219	      0.00000000	      0.00000000	    -32.54193046	     -2.27248920	    -10.65522873	     -1.02608935	    -16.28160820	      6.47257687	     44.86593679	     78.75823349	      0.00000000	      0.00000000	     13.09750885	    -27.15260046	     23.25824883	     55.66174260	     75.14823162	      0.00000000	      0.00000000
      0.03200000	     17.25053688	      4.91236953	      4.50160223	     -0.07884327	      0.96400331	     -0.32669046	      8.81737833	     -7.82705640	    -10.56172765	     22.22238327	      0.38785376	     -9.23283851	      0.00000000	      0.00000000	    -29.26811478	      6.89280339	      9.18379163	      8.10171278	      0.14140156	     -3.84142305	      0.00000000	      0.00000000	    -32.33666024	     -2.44220326	    -10.71236633	     -0.97561327	    -16.26524126	      6.46664614	     44.85856580	     78.77858457	      0.00000000	      0.00000000	     13.20273603	    -27.11818941	     23.24870733	     55.73005625	     75.19774954	      0.00000000	      0.00000000
      0.03600000	     17.08383777	      4.92901883	      4.55748365	     -0.07417945	      0.96288622	     -0.32630864	      9.09736645	     -7.68927577	    -10.76036336	     20.95111536	      0.36566594	     -9.70284856	      0.00000000	      0.00000000	    -29.32164247	      6.83924908	      9.00697677	      8.30215484	      0.14489994	     -3.58334404	      0.00000000	      0.00000000	    -32.25528625	     -2.46399332	    -10.80247533	     -0.77736713	    -16.13295108	      6.47674461	     44.70553377	     78.79609843	      0.00000000	      0.00000000	     13.39684314	    -27.16837488	     23.24788900	     55.76953567	     75.43709088	      0.00000000	      0.00000000
      0.04000000	     16.80402931	      5.03353399	      4.44669627	     -0.06927268	      0.96136823	     -0.32602888	      9.76453340	     -7.74177935	    -11.02582581	     20.26207790	      0.35363997	     -9.68808666	      0.00000000	      0.00000000	    -29.34865177	      6.97957766	      8.82377692	      8.35768955	      0.14586920	     -3.38641949	      0.00000000	      0.00000000	    -32.03812021	     -2.63995085	    -10.75583480	     -0.70982111	    -16.08532731	      6.52494779	     44.69051217	     78.80828835	      0.00000000	      0.00000000	     13.54317128	    -27.17537121	     23.23241687	     55.87822819	     75.46366407	      0.00000000	      0.00000000
      0.04400000	     16.54083839	      5.16753840	      4.36707881	     -0.06442099	      0.95989952	     -0.32592551	     10.35557212	     -7.80978889	    -11.18868158	     19.47757387	      0.33994779	     -9.82635632	      0.00000000	      0.00000000	    -29.35387635	      7.13797506	      8.67503203	      8.48086703	      0.14801905	     -3.18332021	      0.00000000	      0.00000000	    -31.84027220	     -2.81559956	    -10.77192427	     -0.59870251	    -16.04660915	      6.52843209	     44.66004278	     78.79457696	      0.00000000	      0.00000000	     13.67202707	    -27.16963879	     23.22933004	     55.96797842	     75.49419518	      0.00000000	      0.00000000
      0.04800000	     16.39881305	      5.14773755	      4.37053914	     -0.05988876	      0.95874695	     -0.32551307	     10.57312467	     -7.56234407	    -11.05911703	     18.12923457	      0.31641483	    -10.48489602	      0.00000000	      0.00000000	    -29.39279153	      7.07152357	      8.57761171	      8.75256692	      0.15276111	     -2.84030214	      0.00000000	      0.00000000	    -31.81692107	     -2.80484199	    -10.79366841	     -0.53946172	    -15.93354762	      6.46178749	     44.76789203	     78.71823452	      0.00000000	      0.00000000	     13.88265064	    -27.19874795	     23.18686325	     56.01584718	     75.58286333	      0.00000000	      0.00000000
      0.05200000	     16.15026336	      5.23710213	      4.27910480	     -0.05500422	      0.95724585	     -0.32520639	     11.18327281	     -7.56607310	    -11.23954005	     17.49123614	      0.30527966	    -10.51104412	      0.00000000	      0.00000000	    -29.40505929	      7.17972955	      8.35213961	      8.87126175	      0.15483273	     -2.65851772	      0.00000000	      0.00000000	    -31.62467966	     -2.94862221	    -10.76664026	     -0.43069331	    -15.89227091	      6.51938716	     44.72463623	     78.71430953	      0.00000000	      0.00000000	     14.02941307	    -27.21874872	     23.23276287	     56.09084591	     75.61620086	      0.00000000	      0.00000000
